HIERARCHY
ROOT mixamorig:Hips
{
	OFFSET 0.000000 201.639420 0.000000
	CHANNELS 6 Xposition Yposition Zposition Xrotation Yrotation Zrotation
	JOINT mixamorig:Spine
	{
		OFFSET 0.006200 19.524994 -2.481800
		CHANNELS 3 Xrotation Yrotation Zrotation
		JOINT mixamorig:Spine1
		{
			OFFSET -0.000900 22.835007 -2.825400
			CHANNELS 3 Xrotation Yrotation Zrotation
			JOINT mixamorig:Spine2
			{
				OFFSET -0.020600 26.552490 -3.193300
				CHANNELS 3 Xrotation Yrotation Zrotation
				JOINT mixamorig:Neck
				{
					OFFSET -0.060000 30.701813 1.352200
					CHANNELS 3 Xrotation Yrotation Zrotation
					JOINT mixamorig:Head
					{
						OFFSET -0.087200 22.547607 3.670900
						CHANNELS 3 Xrotation Yrotation Zrotation
						JOINT mixamorig:HeadTop_End
						{
							OFFSET -0.830600 40.355194 7.893500
							CHANNELS 3 Xrotation Yrotation Zrotation
							End Site
							{
								OFFSET 0.000000 30.592346 0.000000
							}
						}
						JOINT mixamorig:RightEye
						{
							OFFSET -6.302100 18.118591 16.197100
							CHANNELS 3 Xrotation Yrotation Zrotation
							End Site
							{
								OFFSET 0.000000 30.592346 0.000000
							}
						}
						JOINT mixamorig:LeftEye
						{
							OFFSET 6.741500 18.382690 16.401899
							CHANNELS 3 Xrotation Yrotation Zrotation
							End Site
							{
								OFFSET 0.000000 30.592346 0.000000
							}
						}
					}
				}
				JOINT mixamorig:LeftShoulder
				{
					OFFSET 11.924900 18.230499 1.425400
					CHANNELS 3 Xrotation Yrotation Zrotation
					JOINT mixamorig:LeftArm
					{
						OFFSET 25.435989 -0.697632 -5.229300
						CHANNELS 3 Xrotation Yrotation Zrotation
						JOINT mixamorig:LeftForeArm
						{
							OFFSET 54.684776 0.000000 0.000000
							CHANNELS 3 Xrotation Yrotation Zrotation
							JOINT mixamorig:LeftHand
							{
								OFFSET 55.098175 0.000000 0.000000
								CHANNELS 3 Xrotation Yrotation Zrotation
								JOINT mixamorig:LeftHandMiddle1
								{
									OFFSET 23.369751 0.000000 0.000000
									CHANNELS 3 Xrotation Yrotation Zrotation
									JOINT mixamorig:LeftHandMiddle2
									{
										OFFSET 6.378677 0.000000 0.000000
										CHANNELS 3 Xrotation Yrotation Zrotation
										JOINT mixamorig:LeftHandMiddle3
										{
											OFFSET 6.148331 0.000000 0.000000
											CHANNELS 3 Xrotation Yrotation Zrotation
											JOINT mixamorig:LeftHandMiddle4
											{
												OFFSET 6.582504 0.000000 0.000000
												CHANNELS 3 Xrotation Yrotation Zrotation
												End Site
												{
													OFFSET -1.168900 6.395691 1.028606
												}
											}
										}
									}
								}
								JOINT mixamorig:LeftHandThumb1
								{
									OFFSET 7.235672 -3.848206 5.434273
									CHANNELS 3 Xrotation Yrotation Zrotation
									JOINT mixamorig:LeftHandThumb2
									{
										OFFSET 6.568451 -3.792297 3.792300
										CHANNELS 3 Xrotation Yrotation Zrotation
										JOINT mixamorig:LeftHandThumb3
										{
											OFFSET 6.063080 -3.500519 3.500518
											CHANNELS 3 Xrotation Yrotation Zrotation
											JOINT mixamorig:LeftHandThumb4
											{
												OFFSET 4.793182 -2.767334 2.767349
												CHANNELS 3 Xrotation Yrotation Zrotation
												End Site
												{
													OFFSET 0.101639 6.054260 1.275483
												}
											}
										}
									}
								}
								JOINT mixamorig:LeftHandIndex1
								{
									OFFSET 23.101074 -0.309540 4.992809
									CHANNELS 3 Xrotation Yrotation Zrotation
									JOINT mixamorig:LeftHandIndex2
									{
										OFFSET 6.226883 0.000000 0.000000
										CHANNELS 3 Xrotation Yrotation Zrotation
										JOINT mixamorig:LeftHandIndex3
										{
											OFFSET 6.094330 0.000000 0.000000
											CHANNELS 3 Xrotation Yrotation Zrotation
											JOINT mixamorig:LeftHandIndex4
											{
												OFFSET 5.482605 0.000000 0.000000
												CHANNELS 3 Xrotation Yrotation Zrotation
												End Site
												{
													OFFSET -1.427902 5.233032 0.797164
												}
											}
										}
									}
								}
								JOINT mixamorig:LeftHandRing1
								{
									OFFSET 22.299240 0.021149 -3.964172
									CHANNELS 3 Xrotation Yrotation Zrotation
									JOINT mixamorig:LeftHandRing2
									{
										OFFSET 6.321869 0.000000 0.000000
										CHANNELS 3 Xrotation Yrotation Zrotation
										JOINT mixamorig:LeftHandRing3
										{
											OFFSET 5.899796 0.000000 0.000000
											CHANNELS 3 Xrotation Yrotation Zrotation
											JOINT mixamorig:LeftHandRing4
											{
												OFFSET 6.517899 0.000000 0.000000
												CHANNELS 3 Xrotation Yrotation Zrotation
												End Site
												{
													OFFSET -1.637299 6.232208 0.980890
												}
											}
										}
									}
								}
								JOINT mixamorig:LeftHandPinky1
								{
									OFFSET 20.463791 -0.302338 -8.562233
									CHANNELS 3 Xrotation Yrotation Zrotation
									JOINT mixamorig:LeftHandPinky2
									{
										OFFSET 6.908646 0.000000 0.000000
										CHANNELS 3 Xrotation Yrotation Zrotation
										JOINT mixamorig:LeftHandPinky3
										{
											OFFSET 4.622849 0.000000 0.000000
											CHANNELS 3 Xrotation Yrotation Zrotation
											JOINT mixamorig:LeftHandPinky4
											{
												OFFSET 5.216080 0.000000 0.000000
												CHANNELS 3 Xrotation Yrotation Zrotation
												End Site
												{
													OFFSET -0.606308 5.116241 0.814926
												}
											}
										}
									}
								}
							}
						}
					}
				}
				JOINT mixamorig:RightShoulder
				{
					OFFSET -12.001300 18.284088 1.348900
					CHANNELS 3 Xrotation Yrotation Zrotation
					JOINT mixamorig:RightArm
					{
						OFFSET -25.308500 -0.751312 -5.164599
						CHANNELS 3 Xrotation Yrotation Zrotation
						JOINT mixamorig:RightForeArm
						{
							OFFSET -54.684429 0.000000 0.000000
							CHANNELS 3 Xrotation Yrotation Zrotation
							JOINT mixamorig:RightHand
							{
								OFFSET -55.150291 0.000000 0.000000
								CHANNELS 3 Xrotation Yrotation Zrotation
								JOINT mixamorig:RightHandMiddle1
								{
									OFFSET -23.317566 0.000000 0.000000
									CHANNELS 3 Xrotation Yrotation Zrotation
									JOINT mixamorig:RightHandMiddle2
									{
										OFFSET -6.378403 0.000000 0.000000
										CHANNELS 3 Xrotation Yrotation Zrotation
										JOINT mixamorig:RightHandMiddle3
										{
											OFFSET -6.148193 0.000000 0.000000
											CHANNELS 3 Xrotation Yrotation Zrotation
											JOINT mixamorig:RightHandMiddle4
											{
												OFFSET -6.583389 0.000000 0.000000
												CHANNELS 3 Xrotation Yrotation Zrotation
												End Site
												{
													OFFSET 1.171692 6.395905 1.029786
												}
											}
										}
									}
								}
								JOINT mixamorig:RightHandThumb1
								{
									OFFSET -7.190521 -3.860474 5.435846
									CHANNELS 3 Xrotation Yrotation Zrotation
									JOINT mixamorig:RightHandThumb2
									{
										OFFSET -6.567429 -3.791718 3.791708
										CHANNELS 3 Xrotation Yrotation Zrotation
										JOINT mixamorig:RightHandThumb3
										{
											OFFSET -6.062469 -3.500153 3.500166
											CHANNELS 3 Xrotation Yrotation Zrotation
											JOINT mixamorig:RightHandThumb4
											{
												OFFSET -4.792618 -2.767029 2.767022
												CHANNELS 3 Xrotation Yrotation Zrotation
												End Site
												{
													OFFSET -0.100327 6.053253 1.276754
												}
											}
										}
									}
								}
								JOINT mixamorig:RightHandIndex1
								{
									OFFSET -23.048981 -0.310791 4.992554
									CHANNELS 3 Xrotation Yrotation Zrotation
									JOINT mixamorig:RightHandIndex2
									{
										OFFSET -6.227539 0.000000 0.000000
										CHANNELS 3 Xrotation Yrotation Zrotation
										JOINT mixamorig:RightHandIndex3
										{
											OFFSET -6.095047 0.000000 0.000000
											CHANNELS 3 Xrotation Yrotation Zrotation
											JOINT mixamorig:RightHandIndex4
											{
												OFFSET -5.484772 0.000000 0.000000
												CHANNELS 3 Xrotation Yrotation Zrotation
												End Site
												{
													OFFSET 1.420593 5.237305 0.797056
												}
											}
										}
									}
								}
								JOINT mixamorig:RightHandRing1
								{
									OFFSET -22.246323 0.020569 -3.963762
									CHANNELS 3 Xrotation Yrotation Zrotation
									JOINT mixamorig:RightHandRing2
									{
										OFFSET -6.322128 0.000000 0.000000
										CHANNELS 3 Xrotation Yrotation Zrotation
										JOINT mixamorig:RightHandRing3
										{
											OFFSET -5.900024 0.000000 0.000000
											CHANNELS 3 Xrotation Yrotation Zrotation
											JOINT mixamorig:RightHandRing4
											{
												OFFSET -6.518356 0.000000 0.000000
												CHANNELS 3 Xrotation Yrotation Zrotation
												End Site
												{
													OFFSET 1.636398 6.232697 0.982186
												}
											}
										}
									}
								}
								JOINT mixamorig:RightHandPinky1
								{
									OFFSET -20.411011 -0.303314 -8.561701
									CHANNELS 3 Xrotation Yrotation Zrotation
									JOINT mixamorig:RightHandPinky2
									{
										OFFSET -6.907349 0.000000 0.000000
										CHANNELS 3 Xrotation Yrotation Zrotation
										JOINT mixamorig:RightHandPinky3
										{
											OFFSET -4.623840 0.000000 0.000000
											CHANNELS 3 Xrotation Yrotation Zrotation
											JOINT mixamorig:RightHandPinky4
											{
												OFFSET -5.218353 0.000000 0.000000
												CHANNELS 3 Xrotation Yrotation Zrotation
												End Site
												{
													OFFSET 0.602097 5.118835 0.816273
												}
											}
										}
									}
								}
							}
						}
					}
				}
			}
		}
	}
	JOINT mixamorig:LeftUpLeg
	{
		OFFSET 18.168400 -13.561905 -0.039000
		CHANNELS 3 Xrotation Yrotation Zrotation
		JOINT mixamorig:LeftLeg
		{
			OFFSET 0.577358 -80.825211 -3.695000
			CHANNELS 3 Xrotation Yrotation Zrotation
			JOINT mixamorig:LeftFoot
			{
				OFFSET -0.577356 -83.370262 -6.520700
				CHANNELS 3 Xrotation Yrotation Zrotation
				JOINT mixamorig:LeftToeBase
				{
					OFFSET 0.750401 -20.798306 25.135401
					CHANNELS 3 Xrotation Yrotation Zrotation
					JOINT mixamorig:LeftToe_End
					{
						OFFSET -0.000500 0.001200 19.917799
						CHANNELS 3 Xrotation Yrotation Zrotation
						End Site
						{
							OFFSET 0.000000 19.917805 0.000000
						}
					}
				}
			}
		}
	}
	JOINT mixamorig:RightUpLeg
	{
		OFFSET -18.162500 -13.585098 -0.041000
		CHANNELS 3 Xrotation Yrotation Zrotation
		JOINT mixamorig:RightLeg
		{
			OFFSET -0.595024 -80.945297 -3.631900
			CHANNELS 3 Xrotation Yrotation Zrotation
			JOINT mixamorig:RightFoot
			{
				OFFSET 0.595024 -83.218193 -6.561200
				CHANNELS 3 Xrotation Yrotation Zrotation
				JOINT mixamorig:RightToeBase
				{
					OFFSET -0.753601 -20.807106 25.115000
					CHANNELS 3 Xrotation Yrotation Zrotation
					JOINT mixamorig:RightToe_End
					{
						OFFSET 0.000299 0.001700 19.918200
						CHANNELS 3 Xrotation Yrotation Zrotation
						End Site
						{
							OFFSET 0.000000 19.918203 0.000000
						}
					}
				}
			}
		}
	}
}
MOTION
Frames: 4
Frame Time: 0.033333
-0.012694 173.029327 -0.641720 -5.398710 -46.252009 -0.056132 9.475556 7.180773 -1.803784 2.187716 0.989894 -0.915631 2.202828 0.982778 -0.894153 0.084650 13.220559 4.538679 8.920926 20.138142 -4.130236 0.000000 0.000000 -0.000000 0.000000 0.000000 -0.000000 0.000000 0.000000 -0.000000 1.117176 3.546354 -8.633310 -53.487020 4.935498 -51.502997 0.000135 -106.358094 0.000121 1.988606 -7.706151 -15.869246 -0.461472 3.841586 -39.722683 6.450733 5.820348 -95.892878 2.182888 4.561563 -51.127723 -0.000000 -0.000002 0.000003 -6.141209 -11.690812 -6.761684 9.914077 42.595536 3.409859 -0.422818 8.108093 27.509113 -0.000002 0.000004 -0.000002 0.255308 3.378215 -45.814341 5.654080 5.847746 -88.067455 2.162135 4.544813 -50.866369 -0.000000 0.000002 -0.000002 0.469727 4.966835 -39.799447 8.181049 5.368616 -113.503011 3.200485 5.218108 -63.022982 0.000000 0.000000 0.000002 -3.762431 9.063696 -45.253811 5.342534 5.829003 -85.005324 8.716855 5.103346 -119.369181 -0.000002 0.000000 0.000001 3.036130 13.027195 -5.371411 -48.713698 27.172825 83.457084 0.000232 105.988287 -0.000244 -8.345396 17.548100 8.775691 -0.761619 -2.932904 39.031055 5.133892 -4.632767 95.881642 1.739728 -3.631688 51.181329 0.000000 -0.000001 -0.000002 -7.341104 13.749658 7.412322 9.855773 -44.489096 -3.903260 -0.115791 -14.513069 -28.973857 -0.000003 -0.000004 0.000000 -0.124374 -2.384783 45.108868 4.500567 -4.654512 88.071143 1.723225 -3.618376 50.920116 -0.000000 -0.000002 -0.000002 0.154762 -4.068821 39.122664 6.509726 -4.273606 113.462857 2.549576 -4.153904 63.067317 -0.000001 0.000002 0.000003 -4.198879 -8.025519 44.637786 4.252917 -4.639634 85.014832 6.935957 -4.062612 119.322298 -0.000003 0.000000 -0.000001 -34.130875 7.615459 16.986788 59.306867 -6.173491 4.298897 -22.400247 -8.372843 -14.231628 -1.594040 -0.000012 0.000000 0.000000 -0.000000 0.000000 -27.091471 -9.870281 -27.856933 58.168828 -9.793130 -7.732355 -23.346264 -5.496067 20.853122 -0.013005 -0.000005 -0.000007 -0.000000 0.000000 0.000000 
0.252961 173.302521 -1.445822 -6.204391 -44.468978 0.138295 9.368448 4.392188 -2.172263 3.404361 0.015838 -1.639146 3.421340 0.004382 -1.620530 0.785995 12.384670 4.202296 7.872396 20.578600 0.441233 -0.000002 0.000000 -0.000000 -0.000002 0.000000 -0.000000 -0.000002 0.000000 -0.000000 0.662828 2.718505 -6.647324 -53.126690 9.543497 -49.139980 0.000091 -109.470345 0.000090 -1.003082 -6.700599 -15.430970 -0.461472 3.841580 -39.722683 6.450738 5.820349 -95.892871 2.182889 4.561564 -51.127726 0.000001 -0.000001 -0.000001 -6.141209 -11.690814 -6.761691 9.914078 42.595529 3.409856 -0.422819 8.108094 27.509113 0.000003 0.000000 0.000001 0.255309 3.378213 -45.814341 5.654081 5.847745 -88.067448 2.162135 4.544814 -50.866372 0.000000 -0.000002 -0.000003 0.469727 4.966836 -39.799447 8.181051 5.368612 -113.503018 3.200486 5.218107 -63.022982 0.000001 0.000001 0.000001 -3.762430 9.063695 -45.253814 5.342537 5.829000 -85.005324 8.716854 5.103347 -119.369181 -0.000005 0.000000 0.000001 3.987160 14.299631 -4.520278 -49.723644 28.359326 81.604942 0.000068 105.378255 -0.000083 -12.432013 17.806722 8.105792 -0.761620 -2.932904 39.031051 5.133893 -4.632767 95.881642 1.739729 -3.631686 51.181333 -0.000001 -0.000002 -0.000004 -7.341100 13.749655 7.412314 9.855775 -44.489096 -3.903255 -0.115791 -14.513073 -28.973864 -0.000002 0.000000 -0.000000 -0.124374 -2.384786 45.108864 4.500567 -4.654511 88.071143 1.723223 -3.618377 50.920112 -0.000000 -0.000001 -0.000002 0.154763 -4.068822 39.122658 6.509726 -4.273605 113.462850 2.549575 -4.153902 63.067324 -0.000000 -0.000001 0.000004 -4.198879 -8.025517 44.637783 4.252921 -4.639634 85.014839 6.935956 -4.062616 119.322298 0.000001 -0.000000 0.000000 -33.376092 6.612609 14.546279 58.480503 -5.168155 5.423170 -21.729574 -8.260955 -14.938799 -1.413713 0.000012 -0.000001 -0.000000 0.000002 -0.000000 -26.061659 -10.076007 -27.735691 58.198150 -8.982685 -8.393530 -23.124300 -8.361207 20.336531 -0.006267 -0.000007 0.000001 0.000000 0.000001 0.000000 
-1.216155 173.436493 -2.203135 -7.889200 -37.992630 -0.145391 8.244341 0.389965 -2.256499 4.319839 -1.504172 -2.239624 4.322898 -1.521783 -2.230547 1.834037 11.927361 3.547824 9.818104 21.408236 6.632373 -0.000001 0.000000 0.000001 -0.000001 0.000000 0.000001 -0.000001 0.000000 0.000001 0.643686 2.238195 -6.393218 -48.812644 11.783784 -48.049906 -0.000002 -110.952776 -0.000002 -7.409049 -3.976026 -14.860827 -0.461471 3.841579 -39.722679 6.450736 5.820348 -95.892871 2.182889 4.561567 -51.127729 -0.000000 -0.000002 0.000004 -6.141207 -11.690816 -6.761686 9.914085 42.595536 3.409855 -0.422814 8.108093 27.509115 -0.000001 -0.000003 0.000003 0.255308 3.378215 -45.814341 5.654084 5.847746 -88.067448 2.162137 4.544813 -50.866376 -0.000001 0.000001 0.000004 0.469727 4.966835 -39.799444 8.181051 5.368614 -113.503018 3.200486 5.218107 -63.022982 -0.000003 0.000001 0.000000 -3.762429 9.063693 -45.253814 5.342535 5.829001 -85.005324 8.716856 5.103353 -119.369181 0.000002 0.000000 0.000001 4.944838 14.543892 -4.072779 -50.818814 29.946326 81.816609 -0.000350 102.982075 0.000355 -17.673775 19.180165 4.909712 -0.761619 -2.932898 39.031051 5.133894 -4.632766 95.881635 1.739730 -3.631686 51.181326 0.000002 -0.000001 0.000000 -7.341099 13.749658 7.412320 9.855779 -44.489096 -3.903267 -0.115796 -14.513064 -28.973867 -0.000001 -0.000002 0.000003 -0.124373 -2.384781 45.108861 4.500570 -4.654512 88.071143 1.723225 -3.618373 50.920112 -0.000000 -0.000001 -0.000001 0.154765 -4.068816 39.122661 6.509727 -4.273605 113.462857 2.549576 -4.153906 63.067324 -0.000001 -0.000001 -0.000002 -4.198879 -8.025516 44.637786 4.252920 -4.639634 85.014832 6.935957 -4.062618 119.322298 0.000002 0.000001 -0.000000 -32.454839 4.848500 10.247489 57.852112 -6.897598 9.343249 -20.682303 -7.583503 -16.026673 -1.634839 0.000027 0.000004 0.000000 -0.000000 0.000000 -21.627680 -12.438444 -26.866378 57.924095 -8.404352 -8.808175 -23.471629 -15.051299 19.937855 -0.030167 -0.000007 0.000001 0.000000 0.000001 0.000000 
-4.801452 173.754974 -1.912243 -9.921304 -27.417803 0.037913 5.435602 -1.234826 -2.699481 4.597234 -1.893425 -3.056690 4.585602 -1.909657 -3.053246 3.482902 11.310901 2.630047 11.655852 24.305213 10.536036 -0.000001 0.000000 -0.000000 -0.000001 0.000000 -0.000000 -0.000001 0.000000 -0.000000 0.864064 1.885051 -7.147843 -38.135904 10.393376 -50.831227 0.000046 -108.009497 0.000079 -11.776312 0.009940 -13.675824 -0.461469 3.841578 -39.722683 6.450735 5.820350 -95.892878 2.182885 4.561566 -51.127716 0.000002 0.000001 0.000001 -6.141205 -11.690812 -6.761693 9.914083 42.595536 3.409854 -0.422817 8.108094 27.509116 0.000003 0.000001 0.000001 0.255309 3.378216 -45.814341 5.654081 5.847746 -88.067455 2.162136 4.544817 -50.866369 -0.000000 -0.000002 -0.000002 0.469730 4.966832 -39.799444 8.181059 5.368612 -113.503011 3.200486 5.218110 -63.022982 0.000003 -0.000001 0.000005 -3.762428 9.063693 -45.253814 5.342539 5.829000 -85.005317 8.716852 5.103345 -119.369181 0.000002 0.000000 -0.000000 6.011776 15.089911 -3.755108 -49.682984 30.051115 81.525391 0.000566 101.427387 -0.000569 -19.908369 22.528252 -5.774240 -0.761619 -2.932902 39.031051 5.133895 -4.632766 95.881642 1.739729 -3.631687 51.181322 0.000000 0.000002 0.000000 -7.341105 13.749655 7.412319 9.855780 -44.489096 -3.903264 -0.115795 -14.513066 -28.973857 -0.000002 -0.000000 0.000001 -0.124374 -2.384783 45.108861 4.500567 -4.654509 88.071143 1.723223 -3.618375 50.920112 -0.000000 -0.000001 -0.000001 0.154763 -4.068821 39.122664 6.509728 -4.273602 113.462850 2.549574 -4.153902 63.067317 -0.000001 0.000001 0.000001 -4.198878 -8.025519 44.637789 4.252918 -4.639634 85.014832 6.935956 -4.062611 119.322298 0.000004 -0.000000 0.000001 -31.474649 2.306908 7.823751 56.518265 -9.135421 9.992081 -19.440964 -12.065886 -15.996458 -1.491600 -0.000004 0.000001 -0.000000 0.000002 0.000000 -13.918162 -17.274126 -25.329816 56.311515 -7.864401 -7.853118 -24.041106 -24.478630 19.350044 -0.124074 -0.000062 0.000006 -0.000000 -0.000001 0.000000 
